<?xml version="1.0" encoding="utf-8"?>
<!-- Generator: Adobe Illustrator 24.1.1, SVG Export Plug-In . SVG Version: 6.00 Build 0)  -->
<svg version="1.1" id="Layer_1" xmlns="http://www.w3.org/2000/svg" xmlns:xlink="http://www.w3.org/1999/xlink" x="0px" y="0px"
	 viewBox="0 0 512 512" style="enable-background:new 0 0 512 512;" xml:space="preserve">
<g>
	<path d="M256.7,228.6c-14.7,0-26.9,12-26.9,26.8c0,14.7,12.2,26.9,26.9,26.9C292.5,282.2,292.5,228.6,256.7,228.6z M256.7,245.6
		c5.5,0,9.7,4.2,9.7,9.7c0,5.5-4.2,9.7-9.7,9.7c-5.5,0-9.7-4.2-9.7-9.7C246.9,249.8,251.1,245.6,256.7,245.6z M13.8,0
		c-1.5,0-2.2,0.3-7.4,0.8c-5.3,0.7-7,6.9-5.8,13.5c1.2,6.7,1.5,4.4,4.2,8.3c2.7,3.8,90.2,88.3,135.5,132.6L60,237.5
		c-26.7,27.3-40.8,69.4-49,115.9c-8.3,46.5-10.4,98-11,144.8c0.1,6.7,5.1,12.4,11.8,13.2h2.5c3.1-0.3,6-1.7,8.2-3.9h0.1l132.5-135.9
		C240.9,450.9,243,479.9,353.4,501c46.5,8.2,98,10.4,144.8,11c6.7,0,12.3-5,13.2-11.7l0.2-0.2l-0.2-2.8c-0.3-3-1.7-5.7-3.8-7.9v-0.1
		L371.5,356.9l77.5-79.5l2.8-2.8l0.2-0.2c26.7-27.3,40.9-69.3,49.1-115.7c8.2-46.6,10.2-98,10.8-144.8c0-6.7-5-12.3-11.7-13.2
		l-0.2-0.2l-2.8,0.1c-3,0.3-5.7,1.7-7.8,3.8h-0.1L356.9,140.2L274.5,60c-27.3-26.7-69.3-40.9-115.9-49.2C110.5,5.6,62.3,0.7,13.8,0
		L13.8,0z M24.1,17.8c43.5,0.8,89.9,2.6,131.5,9.9c44.9,7.9,83.8,22,106.9,44.6h0.1l2.3,2.3l1.6,1.7l0.1,0.2l0.3,0.2l0.3,0.3v0.2
		l0.1,0.2c2.8,3.8,7.6,11.1,9,14.2c1,2.2,1.9,4.4,2.8,6.9c3.8,11.1,5.8,24.9,4.4,42.4v0.1c-0.3,3.9-0.8,7.9-1.4,12.2
		c-0.3,2-0.8,4.2-1.1,6.6c-0.9,4.7-1.9,9.2-3,13.8c-0.6,2.4-1.2,4.9-1.9,7.4v0.2c-2.8,9.9-6.4,20.9-10.9,32.4
		c-1.1,2.9-2.2,5.7-3.4,8.8c-1,2.3-2.1,4.8-3.2,7.3l-5.5,1.1c-18.7-35.3-39.1-59.7-57.3-73.7c-9.3-7-17.8-11.5-26.2-13.3h-0.1
		c-8.2-1.8-17.1-0.6-22.8,5.3l0.8,1.6l6.8-5.1L24.1,17.8z M494.2,24c-0.8,43.5-2.5,90-9.9,131.6c-7.9,44.9-21.9,83.8-44.6,107
		l-2.3,2.2l-2,1.8L435,267h-0.2c-3.7,2.7-11.3,7.7-14.3,9.1c-2.2,1-4.5,2.2-6.9,3h-0.2c-11,3.8-24.8,5.6-42.3,4.2
		c-3.8-0.3-8-0.7-12.2-1.2l-6.4-1.1h-0.1c-4.7-0.9-9.2-1.9-13.8-3h-0.2c-2.5-0.7-4.9-1.4-7.3-2.1c-11-3-21.8-6.6-32.5-10.7
		c-2.9-1.2-5.9-2.4-9-3.7c-2.2-0.9-4.5-1.8-6.7-2.8c0.3-1.3-1.7,2.1,0,0c0.1-2.1-0.3-4.2-1.1-6.1c34.9-18.6,59.3-38.8,73.3-56.9
		c7.1-9.3,11.7-18,13.5-26.3c1.9-8.2,0.6-17.2-5.3-23l0.2,0.2l2.4,7.5L494.2,24z M296.5,105.5l54.1,52.7l0.2,0.3l0.3,0.2
		c0.8,0.8,1.7,2.4,0.7,7.1c-0.5,2.1-3.1,5.7-4.4,8.3c-1.7,3.6-2.5,6.4-5.8,10.8c-11.7,14.9-34.5,33.4-66.9,50.8
		c1-2.3,1.9-4.6,2.8-6.8c1.2-3.1,2.4-6.3,3.6-9.3c4.7-12.2,8.6-23.6,11.5-34.2c2.1-7.5,3.8-15.1,5.2-22.7v-0.2
		c0.3-2.3,0.9-4.6,1.3-6.9c0.6-4.5,1.1-8.9,1.4-13.4C301.6,127.8,299,116.7,296.5,105.5L296.5,105.5z M165.8,160.3
		c34,15.3,56.2,51.7,69.9,77.2c-2.4-1.1-4.6-1.9-6.9-2.9c-3.2-1.2-6.3-2.4-9.3-3.6c-11.1-4.4-22.5-8.2-34-11.5h-0.1
		c-2.7-0.8-5.3-1.4-7.7-2.1c-5.1-1.3-10.2-2.3-14.9-3.2c-2.3-0.3-4.8-0.6-7.1-1.1v-0.2c-4.5-0.6-8.9-1.1-13.4-1.4
		c-14.5-1.1-25.7,1.4-36.9,3.9l52.8-54l0.6-0.7c0.8-0.8,2.4-1.7,7.1-0.6V160.3z M140.9,228.6c3.8,0.3,7.9,0.8,12.2,1.4h0.2
		c2,0.3,4.2,0.7,6.4,1.1c4.4,0.8,8.9,1.8,13.8,3l3.8,0.9l3.7,0.9h0.1c10.1,2.8,20.8,6.4,32.5,10.9c2.9,1.1,5.9,2.3,8.9,3.4
		c2.6,1.1,5.2,2.3,7.7,3.3l0.3,5.6c-35,18.6-59.5,38.8-73.4,57c-7.1,9.3-11.7,17.8-13.5,26.2v0.2c-1.9,8.2-0.6,17.1,5.3,22.8h-0.2
		l-4-7.2L18,487.7c0.8-43.4,2.4-89.7,9.7-131.3c7.9-44.9,22-83.8,44.6-106.9v-0.1l1.7-1.6l0.7-0.6l1.9-1.7h0.2l0.2-0.3
		c3.7-2.7,11.4-7.8,14.5-9.3c2.3-1,4.7-2,7.1-2.8c11.1-3.8,24.9-5.8,42.4-4.4L140.9,228.6z M250.9,232.8
		c-8.9,2.8-14.9,8.9-17.8,17.8l9.4-10.4L250.9,232.8z M262.5,233.4l3.8,6.9l3.2,2l8.6,6.8c-3.1-7.5-7.9-12.9-15.5-15.6L262.5,233.4z
		 M256.4,244.5c6.6,0,11.7,5.2,11.7,11.8c0.1,6.6-5.2,11.9-11.7,11.8c-6.6,0.1-11.9-5.2-11.8-11.8
		C244.6,249.7,249.8,244.5,256.4,244.5z M234,262.9c3,7.8,8.2,13,15.9,15.9l-5.1-5.9l-4.4-5L234,262.9z M278,263.7l-6.1,2.5
		l-1.2,3.8l-6.1,6.9C270.8,273.9,275.2,270,278,263.7L278,263.7z M276.4,274.6c2.2,0.9,4.5,2.1,6.7,3c3.2,1.2,6.3,2.4,9.3,3.6
		c12,4.6,23.4,8.4,34,11.3c2.8,0.8,5.4,1.4,7.8,2.1c5.2,1.2,10.2,2.4,15,3.3c2.2,0.3,4.7,0.7,7.1,1.1c4.6,0.6,9.1,1.1,13.4,1.6
		c14.5,1.1,25.6-1.5,36.8-4l-52.7,54.1l-0.3,0.2l-0.3,0.3c-0.8,0.8-2.4,1.6-6.9,0.7h-0.1c-4.6-1.1-11.3-4.3-19.1-10.4
		C312.2,329.8,293.7,307,276.4,274.6L276.4,274.6z M237.3,276.5l-2.8,6.7c-1.2,3.1-2.4,6.3-3.7,9.3c-4.3,11.2-8.1,22.5-11.3,34
		c-0.8,2.8-1.4,5.4-2,7.9c-1.2,5.1-2.4,10.2-3.3,14.9c-0.4,2.4-0.8,4.8-1.1,7.2c-0.7,4.4-1.1,8.8-1.6,13.3
		c-1.1,14.5,1.5,25.7,3.9,36.8l-54-52.7l-0.3-0.5l-0.3-0.1v-0.2c-0.8-0.8-1.6-2.2-0.6-6.8v-0.1c1.1-4.6,4.4-11.3,10.4-19.1
		C182.2,312.2,205,293.7,237.3,276.5L237.3,276.5z M259.5,282c18.5,34.7,38.7,59.1,56.8,73.1c9.3,7.1,17.8,11.6,26.2,13.5h0.2
		c8.2,1.8,17,0.6,22.8-5.3l-0.8-1.5l-6.5,5.8l129.9,126.7c-43.5-0.8-90.1-2.6-131.7-10c-44.9-7.9-83.8-21.9-106.9-44.5h-0.1
		l-1.2-1.1l-0.4-0.7l-0.7-0.6l-1.7-1.9v-0.2l-0.3-0.3c-3.4-4.6-6.5-9.4-9.3-14.5c-1.1-2.2-2-4.7-2.8-7.1
		c-3.8-11.1-5.8-24.8-4.4-42.3c0.3-3.8,0.8-7.9,1.4-12.2v-0.2c0.3-2,0.8-4.2,1.1-6.4c0.8-4.4,1.8-8.9,3-13.8v-0.2l1-3.6l0.9-3.6
		v-0.2c2.8-10,6.3-20.8,10.9-32.4c1.1-2.9,2.4-5.9,3.6-8.9c1-2.5,2.1-4.9,3.2-7.4l5.9-0.3L259.5,282z"/>
</g>
</svg>
