<svg role="img" viewBox="0 0 24 24" xmlns="http://www.w3.org/2000/svg" id="Numpy--Streamline-Simple-Icons" height="24" width="24">
  <desc>
    Numpy Streamline Icon: https://streamlinehq.com
  </desc>
  <title>NumPy</title>
  <path d="M10.315 4.876 6.3048 2.8517l-4.401 2.1965 4.1186 2.0683zm1.8381 0.9277 4.2045 2.1223 -4.3622 2.1906 -4.125 -2.0718zm5.6153 -2.9213 4.3193 2.1658 -3.863 1.9402 -4.2131 -2.1252zm-1.859 -0.9329L12.021 0 8.1742 1.9193l4.0068 2.0208zm-3.0401 16.7443V24l4.7107 -2.3507 -0.0053 -5.3085zm4.7037 -4.2057 -0.0052 -5.2528 -4.6985 2.3356v5.2546zm5.6553 -0.9845v5.327l-4.0178 2.0052 -0.0029 -5.3028zm0 -1.8626V6.4214l-4.0253 2.001 0.0034 5.2633zm-12.0221 -0.07L8.0333 9.9756v6.895s-3.8804 -8.2564 -4.2399 -8.998c-0.0463 -0.0957 -0.2371 -0.2007 -0.2858 -0.2262C2.8118 7.2812 0.773 6.2485 0.773 6.2485V18.43l2.8204 1.5076v-6.3674s3.8392 7.3775 3.878 7.458c0.0389 0.0807 0.4245 0.8582 0.8362 1.1314 0.5485 0.363 2.8992 1.7766 2.8992 1.7766z" fill="#000000" stroke-width="1"></path>
</svg>